<svg xmlns="http://www.w3.org/2000/svg" version="1.1" width="600px" height="600px" viewBox="0 0 200 200" style="overflow:hidden!important;"><g id="svga-group-wrapper"><g id="svga-group-backs-single"><path id="SvgjsPath14898" d="M0 0h200v200H0V0z" fill="#fcfe5f" stroke-width="none" opacity="1" stroke="none"></path></g><g id="svga-group-humanwrap-move" transform="matrix(1,0,0,1,0,0)"><g id="svga-group-humanwrap"><g id="svga-group-hair-back-move" transform="matrix(1,-2.856368900253737e-18,2.856368900253737e-18,1,0,0)"><g id="svga-group-hair-back"><path id="SvgjsPath15112" d="M72.3 30.8s1.2-8.7 7.5-10.9 13.4 3.1 20 4.1 15.6-5.6 24.3-2.8 9.4 14.7 12.8 17.2c3.4 2.5 10 3.4 16.9 6.2 6.9 2.8 4.1 12.8 5 22.2.9 9.4 3.7 13.1 11.2 16.8 7.5 3.7 1.6 14.4-1.2 19.7-2.8 5.3.3 5.6 5.6 10.6s.9 16.2-5.9 18.7c-6.9 2.5-9.4 7.8-7.2 13.7 2.2 5.9 1.9 18.1-5.9 20.3-7.8 2.2-13.9-3.6-18.6 2.7-4.7 6.2-8.9 9.1-13.9 7.6-5-1.6-11.2-10.2-14-7.1-2.8 3.1-24.7 15.3-30.3 10.6s-7.8-14.7-14-11.9-9.7 4.4-13.7-1.6-4.6-8.9-10.6-8.2-10.6-6.4-10-13.6c.6-7.2 4.6-7.8-.7-15.3-5.3-7.5-1.6-16.2 3.4-21.2s3.1-14.7-1.6-19-6.9-11.9-2.2-17.2c4.7-5.3 9.7-5.9 9.7-10.6s-3.1-8.7 1.9-15.9 17.2-5.3 20.9-6.2c3.7-1.1 10.6-8.9 10.6-8.9z" fill="#ffffff" stroke-width="none" opacity="1"></path><path id="SvgjsPath15113" d="M175 113c-1.2-1.2-2.3-2.1-3.3-2.8-3.2-2.6-3.9-3.2-2.1-6.6l.3-.5c2.2-4.2 6-11.2 4.4-16.2-.6-1.9-1.9-3.3-3.8-4.3-7.4-3.7-9.8-7.3-10.7-16.1-.3-2.6-.2-5.2-.2-7.7.1-6.7.1-13-5.4-15.2-2.9-1.2-5.8-2-8.3-2.8-3.5-1-6.5-2-8.4-3.3-1-.7-1.9-2.8-2.8-5-1.9-4.6-4.3-10.3-10.3-12.2-5.3-1.7-10.8-.1-15.5 1.2-3.3 1-6.4 1.9-9 1.5-2.3-.3-4.7-1.2-7.2-2.2-4.4-1.6-9-3.4-13.3-1.9-6.1 2.1-7.8 9.8-8.1 11.4-2 2.3-7.2 7.5-9.9 8.2-.8.2-2.3.3-4 .3-5.4.2-13.5.5-17.5 6.3-3.9 5.6-3.2 9.5-2.5 12.9.2 1.2.5 2.4.5 3.6 0 2.2-1.3 3.3-4 5.2-1.6 1.2-3.6 2.6-5.5 4.7-5.2 5.9-2.7 13.9 2.2 18.6 2.5 2.3 4.1 6.3 4.2 10.2 0 3-.9 5.7-2.7 7.4-5.7 5.7-9 14.8-3.5 22.5 3.3 4.6 2.8 6.2 1.8 9-.5 1.4-1.1 3.2-1.3 5.6-.4 4.6 1.2 9.2 4.1 12.1 2 2 4.5 2.9 7 2.6 4.3-.4 5.3 1 7.8 5 .5.8 1.1 1.8 1.8 2.8 4.5 6.6 8.7 4.8 15 1.9 3.1-1.4 4.9 1 7.8 5.3 1.5 2.3 3.1 4.7 5.2 6.4 1.1.9 2.6 1.3 4.3 1.3 8.7 0 24.2-9 27.1-11.7 2.5 1.4 4.9 2.6 6.3 2.9l1.2.9c-1.1.1-2.2 0-3.3-.3-.8-.2-1.1 1-.3 1.2 1.5.4 3.4.5 5.1.1 1.4 1.1 2.8 2 4.2 2.4 6.5 2 11.5-3.2 15-7.9 2.4-3.2 5.1-2.8 8.9-2.2 2.7.4 5.8.9 9.2-.1 2.6-.7 4.6-2.4 6-5.1 2.5-4.9 2.2-12.2.6-16.5-.9-2.6-.9-5 0-7.1 1.1-2.3 3.4-4.2 6.6-5.3 4.1-1.5 7.6-6 8.7-11 .8-3.8-.1-7.3-2.4-9.5zm-57.3 28.9c.6-4.4-.2-8.2-1.1-11 3.5 3.5 7.2 6.9 3.9 12.1-1.5 2.4-4.3 4.6-6.1 7.1 1.4-2 2.8-4.5 3.3-8.2zm-5.1 15.4c.8 2.7 3.1 4.5 5.2 6.2 1.4 1.2 4.2 3.1 4.4 5 .3 2.6-1 4.3-2.8 5.1l-1.2-.9c1.5-.8 2.2-2.2.4-5.2-2.5-4.1-4.7-4.1-6.8-9.5-1-2.8.2-4.6 1.9-6.9-1.1 1.9-1.7 3.8-1.1 6.2zm23.3 11.3c-.6.8-1.1 1.4-1.7 2.1.8-3.3-.3-7-.3-10.7 0-8.1 8-8.4 10.1-15 2.3-7.1-7.3-11.8-.9-18.6.4 3.2.6 6.3 2.5 8.5 4 4.7 2.6 15.1-1.2 17.7s-6.1 5-5 7.6c.8 1.7.1 4.2-.4 5.6-1.1.6-2.1 1.5-3.1 2.8zm21.9-64.2c1.7 4.7 7.2 7.7 7.9 12.8.9 6.7-7.4 8.5-10.9 12.6-3.3 3.7-2.8 8.4-1.4 12.8 1.3 4.2 3.5 8.3 2.6 12.8-1 5.1-5.4 9.6-10.5 10.1-1-.1-1.9-.2-2.8-.2 2.8-1.6 6.3-4 7.5-7 2.1-5.4 3.8-11.4 1.4-18s1.2-11.8 4-18.4c2.8-6.6.9-10.4 1.7-16.1.1-.8.2-1.5.3-2.2 0 .2.1.5.2.8zm17.6 17.7c-.9 4.3-3.9 8.2-7.4 9.5-3.7 1.4-6.4 3.6-7.7 6.4-1.2 2.6-1.2 5.6-.1 8.6 1.4 3.9 1.6 10.6-.5 14.9-1.1 2.2-2.7 3.5-4.7 4.1-2.2.6-4.3.6-6.3.3 3.3-1.3 6-3.9 7.5-7.3 3.6-8-3-14.4-2.7-22.3.3-8.7 10.6-8.6 13.2-15.7 1.7-4.7-1.9-8.5-4.6-11.9-3.6-4.5-3.9-8.2-2-13.6.9-2.7 1.6-5.2.8-7.9 0-1.5-.3-3-1.1-4.6-.9-1.9-4.3-6.2-7.5-10.1-.6-2.2-.7-4.5-.6-7.2.3-6.6-.1-12.4-5.7-16.8-6-4.8-14-4.9-21.3-5-.8 0-.8 1.2 0 1.2 7.8.1 17 .3 22.6 6.6 4.9 5.5 2.6 12.3 3.1 18.8-2.5-3-4.5-5.3-4.5-5.3l-8.8-3.3-3.6 2.1c4.3 4.7 1.2 26.7-.9 34.8-2.1 8 .5 12.3 6.4 17.5 2.7 2.4 3.5 5.6 3.9 8.8-1.1 1-2.1 2-2.8 3.3-2.5 5 1.9 8.4 2.8 13.1 1.3 6.8-6.9 8.5-9.4 13.6-2.9 6.1 2.8 13.8-2.6 19l-.1.1c-2.6 2-5 2.6-7.6 1.9 1.4-.2 2.7-.8 3.9-1.9 2-1.8 3.3-4.6 3.1-7.4-.1-2.3-1.3-4.1-2.5-5.9-.9-2-1.8-3.4-2.3-4.5 0-.1-.1-.2-.1-.4-1.4-7.4 11.1-7.6 11.7-15 .3-3.3-1.9-6.1-3.8-8.6-4.6-6.2-6.1-13.4-.8-19.9.5-.6-.4-1.5-.9-.9-1.6 1.9-2.7 4.1-3.4 6.4 0-.7-.1-1.3-.1-2.1-.7-16.2-8.1-13.1-11.5-1.6-2.8 9.7 7 14.6 9.7 20.9s-2.9 9.5-5 13.7-3.8 6.8 0 10.4c3.7 3.5 8.6 8 3 14.7-1.2.4-2.4.6-3.7.4 2.1-1.2 3.4-3.2 2.6-6.2-.8-2.8-3.5-4.5-5.6-6.3-5.1-4.3-4.8-8.4-.6-13.2 3.7-4.2 8.3-8.7 4.4-14.4-3.2-4.8-8.2-7-9.7-13.1-1.9-7.7 1.7-15.2 8.4-19.1.7-.4.1-1.5-.6-1.1-6.2 3.7-10.2 10.3-9.5 17.7.3 2.6 1.1 5.1 2.3 7.3l-13-2.6-14.4 6.3c-1.3 7.7-4.7 6.8-2.5 11.7s17.3 23.4 17.3 23.4 3.6 2.4 7.4 4.6c-3.6 3.2-17 10.3-24.4 10.8-4.8-2.8-1.2-11.6-4.3-16-2.1-3.1-5.7-4.8-9.2-5.8-6.3-1.8-13.5-.7-19.1-4.6-4.8-3.4-5.4-7.9-2.8-12.9 1-1.9 2.1-3.2 2.3-5.4.1-.7.1-1.4 0-2.2.2-1.1 0-1.9-.5-2.7-.7-2.2-1.8-4.3-2.8-6.4 0-4.2.9-11 2.2-17.1 1.6-.9 3.3-1.6 4.9-2.6 7.9-4.8 7.5-14.2 6.5-22.3-.1-.8-1.3-.8-1.2 0 .8 6.2 1.6 14-3 18.9-1.9 2-4.5 3.1-6.9 4.3 1.1-5.1 2.4-9.5 3.3-10.8l.8-8.6S43.2 91 42.3 98.2c-.8 7.1-9.8 12.2-11.7 17.6-1.9 5.4 3.3 8.8 5.5 13.2 2.1 4.4-1 7.5-2.3 14.7-1.3 7.1 6.1 7.5 10.3 9.2 4.2 1.7 7.8 12.6 12.8 11.9 5-.6 11.5-1.9 15.9 2.1 2.8 2.5 4.8 5.8 5.9 7.9.1 1.8.6 3.5 1.8 4.8-.8-.1-1.4-.4-1.9-.8-1.9-1.6-3.4-3.8-4.8-6-2.2-3.2-4.4-6.6-7.7-6.6-.8 0-1.6.2-2.5.6-6.3 2.8-8.9 4-12.5-1.2-.7-1-1.3-1.9-1.8-2.7-2.6-4.1-4.2-6.5-9.7-5.9-2.4.2-4.2-1-5.4-2.1-2.5-2.4-3.9-6.5-3.5-10.4.2-2.2.7-3.8 1.2-5.1 1-3 1.8-5.3-2-10.8-4.8-6.7-1.8-14.8 3.3-19.9 2.2-2.2 3.3-5.3 3.2-8.9-.1-4.4-2-8.9-4.8-11.6-4.3-4-6.5-10.9-2.1-15.8 1.8-2 3.5-3.3 5.1-4.4 2.6-1.9 4.8-3.5 4.8-6.8a16 16 0 0 0-.5-3.9c-.6-3.4-1.2-6.5 2.2-11.4 3.5-5 11-5.3 16-5.5 1.9-.1 3.3-.1 4.4-.4 3.9-1 10.4-8.2 11.1-9l.2-.2v-.3c0-.1 1.2-8.2 6.8-10.1 3.6-1.3 7.6.2 11.9 1.8 2.5.9 5.1 1.9 7.6 2.3 3 .4 6.3-.5 9.8-1.6 4.7-1.4 9.6-2.8 14.3-1.3 5.1 1.6 7.3 6.9 9.1 11.1 1.1 2.6 2 4.8 3.5 5.9 2.1 1.6 5.3 2.5 9 3.6 2.5.8 5.3 1.6 8.1 2.8 4.3 1.8 4.2 6.9 4.2 13.4 0 2.6-.1 5.3.2 8 .9 9.5 3.7 13.6 11.8 17.7 1.4.7 2.4 1.7 2.8 3.1 1.4 4.2-2.1 10.8-4.2 14.7l-.3.5c-2.6 4.8-.6 6.4 2.6 9.1.9.8 2 1.6 3.2 2.8 2.9 2.5 2.6 5.9 2.2 7.8zM73.1 94.6l-2.4.7c-.9-5.2-3.1-10.5-5.3-15.1-.3-.7-1.4-.1-1.1.6 2.2 4.7 4.4 9.6 5.2 14.8l-5.9 1.7s-8.3 10.4-8.3 16.9c0 4.5 1.3 5.8 5 7.8.2.5.3.9.6 1.4 2.2 4 8.9 5.2 10.4 9.4 1 2.8-.3 6.1-2.4 7.7-.5.4-1 .7-1.5 1.1-.9.7-1.8 1.5-2.3 2.6-1 2.4 0 4.8 1.8 6.4 1.7 1.5 3.8 2.1 5.8 2.9 3.4 1.4 6.2 3.3 8.2 6.5 3.3 5.1 3.8 11.4 1.3 16.9-.3.7.7 1.4 1.1.6 3.3-7.1 1.8-15.7-3.8-21.2-1.4-1.4-3-2.5-4.8-3.3-1.1-.5-2.2-.8-3.3-1.2-1-.4-1.9-.9-2.9-1.4-2.8-3.9-2.7-6.8.4-8.4 2.4-1.8 4.9-3.5 4.5-6.9-.4-3.6-3.9-5.9-6.6-7.8-1.8-1.3-3.5-2.6-4.5-4.2 1.3.7 2.8 1.4 4.6 2.4 9 5 9.9 7.7 8.6 12.2s-4.1 4.7-.4 7.7c2.5 2 7.2 4.4 9.7 8.8.2.7.3 1.4.6 2.1.2.9.6 1.9 1 2.7.1.7.1 1.4.1 2.1 0 0 .3-.3.7-.9 1.2 1.8 3 3 5.4 2.9.8 0 .8-1.3 0-1.2-1.6-.9-3.2-1.9-4.8-2.9v-.1c.6-1.6.8-4.1-1.6-6.9-.2-.3-.4-.5-.7-.8-.4-1.3-.9-2.5-1.8-3.7-1-1.3-2.8-2-3.7-3.3-1.5-2.1-1.7-3.6-1.2-5.1 1.4-2.1 4.6-2.7 4.8-7.8.2-6.1-1.8-19.8-1.8-19.8l-8.7-16.9z" fill="#000000" stroke-width="none" opacity="1"></path></g></g><g id="svga-group-humanbody-back"><path id="SvgjsPath14972" d="M86.5 107c0 18.8 2.7 50.3-8.1 58s-31.8 13.9-36.7 24.4-3.6 29.4-3.6 29.4h124.1s.6-23.1-4.2-30.4c-6.6-10.1-28.5-17.7-36.5-22.9-8.1-5.2-10.9-32.2-10.9-58.8l-24.1.3z" fill="#ffffff" stroke-width="none" opacity="1"></path></g><g id="svga-group-chinshadow-single"></g><g id="svga-group-humanbody-front"><path id="SvgjsPath14973" d="M163.4 220.1H37.2l-.3-.9c-.1-.5-1.3-19.7 3.6-30.3 3.4-7.3 13.6-12.4 23.5-17.4 5.1-2.5 9.9-5 13.6-7.5 8.6-6 8.1-29.8 7.7-47.1-.1-3.5-.1-6.8-.1-9.8v-1.3l26.7-.4v1.3c0 32 3.8 53.5 10.3 57.7 2.4 1.6 6 3.3 10.2 5.4 9.7 4.7 21.9 10.6 26.7 18 5 7.6 4.4 30.9 4.4 31.2l-.1 1.1zm-124.1-2.6h121.6c-.1-2.4-.6-23.2-4-28.4-4.4-6.7-16.2-12.5-25.6-17-4.3-2.1-8-3.9-10.5-5.5-9.8-6.3-11.4-38.8-11.5-58.6l-21.5.4c0 2.6.1 5.5.1 8.5.4 18.9.9 42.4-8.8 49.3-3.8 2.7-8.7 5.1-13.9 7.7-9.5 4.8-19.4 9.7-22.3 16.1-3.3 6.9-3.7 25.9-3.6 27.5z" fill="#000000" stroke-width="none" opacity="1"></path><path id="SvgjsPath14974" d="M76.8 173.7c4.8 2.3 10.4 3.9 15.7 2.9.4-.1.4-.7 0-.8-5.1-.9-10.2-1.4-15.2-3.2-.6-.2-1.1.8-.5 1.1zm31.5 2.4c2.4.3 4.9-.4 7.1-1.2 2.1-.8 4.3-1.7 5.8-3.4.5-.5-.1-1.2-.7-.9-2.1.9-3.9 2.3-6.1 3-2 .7-4.1 1-6.2 1.5-.6.1-.4.9.1 1z" fill="#000000" stroke-width="none" opacity="1"></path></g><g id="svga-group-clothes-single"><path id="SvgjsPath15093" d="M37.25 220.12h126.2s.51-16.94.41-20.02c-.07-2.27-.48-5.16-1.67-8.35-2.81-7.49-5.38-8.9-6.79-10.3-1.4-1.4-26.22-14.98-26.22-14.98s1.17-5.38-3.04-8.19c0 0 1.78-3.54-1.5-7.28-3.28-3.75-1.09-7.53-1.09-7.53s-1.82-8.25-6.27-6.61-29.07 2.22-31.88 1.05c-2.81-1.17-6.96-.71-7.43 1.63-.47 2.34.17 5.16.17 5.16s-3.04 1.4-3.04 5.15 1.64 7.02.47 7.49-2.58 0-3.04 2.58 0 4.92 0 4.92-5.62 4.21-9.6 5.85-15.69 6.79-19.43 11.24c-3.24 3.85-7.6 11.07-6.93 19.31.09 1.26.32 17.56.68 18.88z" fill="#ffffff" stroke-width="none" opacity="1"></path><path id="SvgjsPath15094" d="M163.08 191.38c-2.47-6.6-4.81-8.67-6.35-10.04-.25-.22-.47-.42-.67-.61-1.37-1.37-20.56-11.93-25.84-14.82.17-1.62.2-5.46-2.94-8.01.41-1.41.81-4.44-1.94-7.58-2.74-3.14-1.04-6.24-.97-6.37.13-.22.17-.47.11-.72-.12-.56-1.3-5.52-4.22-7.11-1.05-.57-2.22-.65-3.38-.22-4.28 1.58-28.64 2.11-31.15 1.06-2.28-.95-5.13-.93-6.95.03-1.01.54-1.65 1.34-1.85 2.32-.36 1.8-.13 3.81.04 4.86-1.05.72-2.93 2.46-2.93 5.65 0 1.73.32 3.34.59 4.64.14.68.32 1.59.31 2-.14.04-.3.07-.47.11-1 .2-2.51.51-2.99 3.15-.35 1.93-.21 3.73-.1 4.65-1.43 1.04-5.74 4.08-8.9 5.38-3.63 1.5-15.8 6.75-19.81 11.52-2.03 2.41-7.87 10.24-7.18 19.84.1 1.39.34 17.82.74 19.27.12.43.51.73.96.73h126.2c.45 0 .85-.31.97-.75.02-.07.15-.57.26-1.42.32-2.26.55-21.96-1.54-27.56zm-.53 5.92c-5.09-2.31-9.54-5.06-13.31-9.27.86-1.05 1.69-1.99 2.45-2.79 2.77 2.98 6.07 5.71 9.74 7.5.56 1.62.91 3.16 1.12 4.56zm-7.15-14.47c1.39 1.23 3.48 3.1 5.76 9.13-3.3-2.07-6.38-4.26-9.18-7.03 1.27-1.32 2.29-2.23 2.8-2.67.19.19.39.37.62.57zm-31.57-31.2c2.77 3.16 1.41 6.06 1.36 6.17-.23.45-.08 1 .34 1.28 3.58 2.39 2.66 6.96 2.62 7.15-.02.09-.02.18-.01.27-.04.1-.33.67-1.94 1.56.39-2.22.06-4.39-1.19-6.41-.36-.59-.9-1.06-1.25-1.64-1.35-2.22-1.12-3.5-1.14-5.87-.01-1.1.13-1.66-.38-2.71-1.01-2.1-1.74-1.11-2.01-4.05-.04-.44-.04-.85-.02-1.25.63-.2 1.17-.39 1.62-.55-.18 1.75.18 3.97 2 6.05zm-.58 12.28c-1.34-2.85-3.94-3.94-4.91-7.31-.59-2.08-.32-4.37-.8-6.49-.25-1.11-.82-1.92-1.22-2.87.78-.2 1.49-.4 2.15-.59.01.37.07.77.19 1.18.55 1.9 2.2 2.66 2.87 4.58.7 2.02-.15 3.83.46 5.81.27.87.89 1.42 1.39 2.15 1.78 2.59 2.72 4.9 2.32 7.95-.55.28-1.23.58-2.06.91.49-1.74.45-3.53-.39-5.32zm-4.58-.63c-.56-1.34-1.52-2.37-2.14-3.66-1.37-2.86-.47-4.04-1.23-6.57-.39-1.29-1.38-2.09-1.92-3.26-.3-.65-.47-1.22-.57-1.76 1.06-.21 2.05-.44 2.97-.67 2.16 3.3.93 7.13 2.43 10.73 1.85 4.44 6.35 5.95 4.79 11.37-1.03.38-2.26.79-3.74 1.22.52-2.48.43-4.94-.59-7.4zm-11.18-4.78c-2.77.07-5.97.19-9.03.44.01-.06.01-.12-.02-.18-1.63-3.09-1.76-6.29-.23-9.38.42.01.84.02 1.27.02.3 0 .6 0 .91-.01 2.15-.03 4.2-.18 6.15-.39.53 3.12.9 6.26.95 9.5zm-.39-9.55c1.8-.21 3.49-.48 5.06-.78.04.26.1.52.18.77.31.88.87 1.39 1.28 2.17.92 1.76 1.05 2.9 1.3 4.85.13 1.01.28 1.8.56 2.62a.933.933 0 0 0-.44-.12c-.06 0-3.03-.05-7.03.04-.03-3.24-.37-6.41-.91-9.55zm-10.03 1.36c-.79 3.14-.82 5.79.86 8.67-.69.06-1.37.12-2.04.2-1.2.13-2.49.16-3.81.11-.06-.94-.16-1.88-.13-2.87.09-2.47 1.56-4.84 1.78-7.27 1.12.1 2.29.17 3.5.22-.02.31-.08.62-.16.94zm-5.17 1.85c-.3 1.22-.67 1.68-.7 2.99-.03 1.38.65 2.77.67 4.14-1.15-.05-2.33-.15-3.49-.28-1.92-2.87-1.28-7.27-.2-10.61 1.36.25 2.84.47 4.43.64-.19 1.08-.49 2.19-.71 3.12zm-4.44 6.73c-.86-.12-1.71-.25-2.53-.39-2.48-3.63-2.78-7.07-1.26-11.09 1.19.31 2.53.62 4.02.9-1.12 3.16-1.86 7.73-.23 10.58zm-3.54-.58a81.07 81.07 0 0 1-3.14-.65c-.94-1.82-1.72-3.54-1.68-5.74.04-1.97.69-3.71 1.64-5.34.67.21 1.43.44 2.3.67-1.85 3.38-1.43 7.97.88 11.06zm-.56 1.94c-1.95 3.3-1.98 7.78.74 10.67-1.3-.36-2.52-.76-3.64-1.19-2.57-3.28-2.9-6.83-.67-10.24 1.07.25 2.28.52 3.57.76zm.56.11c1.28.23 2.63.44 4.01.61-1.34 3.49-.92 8.05 1.28 11.12-1.49-.28-2.93-.6-4.29-.95-.01-.02 0-.04-.01-.06-2.31-3.55-3.01-7.13-.99-10.72zm4.54.67c1.04.11 2.08.2 3.12.25-.28 1.06-.67 2.11-.78 3.16-.1.91-.15 1.81-.02 2.72.33 2.33 1.54 4.21 3.26 5.64-1.35-.15-2.68-.34-3.97-.56-2.11-3.72-2.76-7.04-1.61-11.21zm3.52 1c.04-.25.08-.5.1-.74.37.01.74.02 1.11.02 1 0 1.99-.05 2.92-.15.73-.08 1.48-.15 2.23-.21-1.18 4.07-.38 9.13 2.55 12.3-2.02-.04-4.03-.16-6-.36-3.62-3.03-3.71-6.35-2.91-10.86zm6.81-1.11c3.12-.25 6.38-.37 9.16-.43 2.04 3.99 2.21 8.3.68 12.44-2.21.24-4.47.35-6.75.34-2.89-3.63-4.32-7.64-3.09-12.35zm9.63-.44c3.77-.07 6.53-.03 6.59-.03.46 0 .84-.31.96-.74.03.07.05.12.09.19 2.05 3.81 3.48 6.75 2.68 10.94-1.4.39-3 .8-4.84 1.22-1.48.34-3.02.6-4.59.79 1.51-4.05 1.15-8.53-.89-12.37zm9.15-22.7c.63-.23 1.18-.2 1.73.09 1.63.89 2.7 3.83 3.11 5.34-.3.12-.99.38-1.98.72.03-.42.05-.85.02-1.3-.15-2.14-1.33-3.74-3.04-4.8.05-.02.11-.04.16-.05zm-.8.23c3.96 2.55 2.82 4.26 2.1 6.43-.85.26-1.85.55-2.95.83.02-.6.16-1.12.1-1.96-.17-2.14-.77-3.64-2.42-4.77 1.29-.16 2.37-.34 3.17-.53zm-3.72.59c2.45 1.84 3.03 4.15 1.75 6.94-.66.16-1.36.32-2.09.47.07-1.11.25-2.18-.02-3.54-.34-1.66-.99-2.63-2.54-3.24-.19-.08-.32.24-.14.33 2.74 1.43 2.23 4.08 2.09 6.57-1.65.33-3.45.62-5.37.84-.51-2.59-1.13-5.16-1.8-7.74 3-.15 5.84-.36 8.12-.63zm-8.54.66c.55 2.62 1.12 5.2 1.63 7.78-1.84.2-3.78.33-5.8.36-.78.01-1.54 0-2.28-.02-1.11-2.43-1.19-4.99-.49-7.64.04-.16-.19-.22-.24-.07-.92 2.74-.18 5.18-.03 7.68-1.3-.05-2.54-.13-3.73-.24-.7-2.48-2.85-4.75-.44-7.29.18-.19-.08-.43-.28-.28-1.52 1.23-1.56 2.61-1.15 4.49.19.84.73 1.57.92 2.4.04.19.07.39.08.59a61.42 61.42 0 0 1-4.54-.67c-.32-1-.59-1.97-.58-3.09.01-1.43.4-2.66.91-3.93 3.94.27 10.23.21 16.02-.07zm-19.55-.45c.51.21 1.55.37 2.96.49-1.03 2.03-1.23 4.77-.43 6.93-1.32-.26-2.5-.54-3.56-.82-.91-2.3-.88-4.46.29-6.85.26.07.51.15.74.25zm-1.21-.37c-1.25 1.91-1.54 4.55-.72 6.72-.43-.12-.83-.24-1.21-.35-1.21-2.09-1.32-4.5-.15-6.53.68-.04 1.39.01 2.08.16zm-4.85 1.27c.08-.38.35-.7.82-.95.38-.2.85-.33 1.36-.41-1.05 1.9-1.15 4.27-.11 6.2-.56-.18-1.05-.34-1.44-.47-.23-.08-.41-.14-.58-.19-.14-.9-.36-2.67-.05-4.18zm-.67 6.04c.19.06.42.14.67.22.35.12.76.26 1.24.41-2.06 3.2-2.43 7.77-.44 11.02-1.15-.28-2.1-.53-2.78-.72.05-.73-.13-1.64-.33-2.62-.24-1.21-.55-2.71-.55-4.24.01-2.45 1.55-3.67 2.19-4.07zm.82 13.56c-2.11 2.87-2.11 7.1.1 9.88-.96-.42-1.82-.86-2.57-1.32-2.22-2.79-2.45-6.09-.7-9.41.66.2 1.76.51 3.17.85zm-5.59.76c.24-1.31.58-1.38 1.42-1.55.12-.02.25-.05.38-.08-1.72 2.51-1.7 5.82-.22 8.34-.83-.71-1.38-1.46-1.59-2.21-.05-.25-.4-2.29.01-4.5zM45.34 181.4c.25.26.61.64 1.06 1.11l-1.38-.81c.09-.1.21-.2.32-.3zm-1.13 1.14c.15-.17.31-.35.48-.53.96.6 1.91 1.2 2.88 1.78 1.36 1.5 3.11 3.51 4.92 5.81-3.45-1.43-6.65-3.02-9.72-5.2.57-.78 1.07-1.42 1.44-1.86zm-1.72 2.27c3.08 2.49 6.71 4.54 10.56 5.52 1.57 2.03 3.15 4.24 4.53 6.5-6.09-2.35-11.72-4.92-17.01-8.8-.01-.01-.03 0-.04-.01.66-1.23 1.34-2.31 1.96-3.21zm-4.51 34.29c-.04-.16-.07-.64-.1-1.34.66.48 1.37.94 2.11 1.34h-2.01zm3.1 0c-1.08-.53-2.16-1.07-3.22-1.67-.03-.81-.06-1.85-.09-3.02 2.59 2 5.66 3.62 8.83 4.68h-5.52zm14.32 0c-5.83-2.71-11.75-4.76-17.12-8.41-.12-.08-.22.1-.11.19 4.8 3.68 10.59 6.39 16.38 8.22h-6.12c-3.69-1.47-7.37-2.66-10.67-5-.06-2.31-.1-5.05-.14-7.44 6.25 5.19 14.96 8.91 22.76 11.02.14.04.19-.16.06-.22-7.77-3.24-15.97-5.98-22.79-11.07-.01-.01-.02 0-.03-.01-.02-1.24-.04-2.37-.05-3.28 6.05 5.17 14.45 8.64 21.93 10.87.15.05.2-.17.06-.23-7.56-3.1-15.5-5.94-22-11.02-.02-.94-.03-1.6-.04-1.78-.03-.44-.04-.87-.05-1.3 1.64 1.72 3.74 3.13 6.04 3.61.27.06.36-.3.11-.4-2.37-.97-4.41-2.08-6.15-3.85.03-1.2.16-2.37.38-3.5 3.57 3.83 8.16 6.8 13.29 8.01.28.06.38-.33.12-.42-5.13-1.79-9.54-4.31-13.3-8.16.2-.92.45-1.8.74-2.65 6.38 4.88 13.56 8.95 21.37 10.96.25.06.33-.29.1-.38-7.65-2.89-14.75-6.2-21.33-11.03.45-1.25.97-2.4 1.51-3.45 5.01 4.03 10.91 7.38 17.24 8.75.08.02.13-.02.16-.07 1.32 2.18 2.44 4.38 3.19 6.48.02.05.04 1.26.05 2.98-2.15-.89-4.48-1.46-6.66-2.26-.21-.08-.29.25-.09.33 2.15.86 4.45 1.9 6.75 2.35l.03 2.93c-4.4-1.55-8.81-2.96-13.11-4.79-.12-.05-.23.12-.11.18 4.21 2 8.65 3.81 13.22 4.81.03 4.2.07 8.9.1 9H55.4zm83.76 0H63.21c-.07-.25-.15-15.5-.23-15.75-3.12-9.45-13.53-20.59-16.08-23.22 5.23-3.87 14.28-7.69 16.35-8.55 3.08-1.27 7.01-3.95 8.82-5.25 3.2 5.18 16.88 8.92 30.05 8.92 4.25 0 8.45-.39 12.21-1.25 8.61-1.96 13.74-4.02 15.29-6.15 7.93 4.35 19.27 10.67 23.44 13.23-2.68 2.34-11.04 10.41-13.66 21.78-.07.42-.16 15.83-.24 16.24zm8.73 0c-1.92-.95-3.86-1.81-5.69-2.98-.15-.09-.28.14-.13.23 1.53 1.01 3.17 2.03 4.89 2.75h-5.76c.03-.17.08-3.22.12-6.62 3.26 2.47 6.77 4.87 10.51 6.62h-3.94zm14.78-15.63c-.01.08-.02 1.77-.03 4.02-2.35-1.1-4.72-2.1-7.01-3.34-.14-.08-.25.12-.12.21 2.17 1.43 4.61 2.75 7.13 3.5l-.03 6.57c-3.77-1.52-7.54-2.96-11.16-4.85-.11-.06-.21.11-.1.17 3.55 2.01 7.3 3.84 11.26 4.89-.01 2.47-.02 4.4-.03 4.46h-.72c.12-.05.18-.24.04-.3-7.31-3.11-13.75-7.15-20.3-11.61-.12-.08-.22.11-.11.19 6.19 4.6 12.75 9.5 20.24 11.72h-8.82c-3.92-2.23-7.86-4.32-11.58-6.91.05-4.29.1-9.02.13-9.22.01-.07.02-.13.04-.2 2.16 2.06 4.51 3.94 7.13 5.37.05.03.1-.05.05-.08-2.53-1.64-4.94-3.4-7.14-5.47.17-.98.47-1.94.81-2.83 3.53 3.35 7.71 6.17 11.95 8.49.06.03.12-.06.06-.1-4.19-2.66-8.01-5.66-11.86-8.76.43-1.06.89-1.98 1.18-2.59 2.88 2.91 6.26 5.46 10.06 7 .19.08.32-.24.14-.33-3.65-2.03-7.01-4.22-9.98-7.13a41.38 41.38 0 0 1 2.25-4.01c4.39 4.95 10.21 8.85 16.6 10.64-.05.17-.06.34-.08.5zm.09-.99c-6.29-2.45-11.64-5.71-16.42-10.49.86-1.32 1.75-2.53 2.61-3.61 3.57 4.25 8.3 7.88 13.67 9.45.24 1.87.23 3.46.14 4.65z" fill="#000000" stroke-width="none" opacity="1"></path></g><g id="svga-group-head" transform="matrix(1,-2.856368900253737e-18,2.856368900253737e-18,1,0,0)"><g id="svga-group-ears-left-move" transform="matrix(1,0,0,1,0,0)"><g id="svga-group-ears-left"><path id="SvgjsPath14918" d="M62.9 81.4s-3-4.7-6.1-5.6-6.6 2.1-6.1 7.8c.6 5.7 8.7 18.9 15.9 19.7 6.2.7-1.1-18.5-3.7-21.9z" fill="#ffffff" stroke-width="none" opacity="1"></path><path id="SvgjsPath14919" d="M66.5 104.2c-7.7-.8-16.1-14.5-16.7-20.4-.3-3.4.8-6.4 3-7.9 1.3-.9 2.9-1.2 4.4-.8 3.3.9 6.2 5.3 6.6 5.9 2.1 2.7 8.5 18 5.5 22-.5.7-1.4 1.1-2.3 1.1-.3.1-.4.1-.5.1zM53.9 77.1c-1.7 1.1-2.5 3.6-2.3 6.4.5 5.4 8.5 18.3 15 18.9.4 0 .7 0 .9-.3 2.1-2.9-3.2-17.2-5.5-20.3v-.1c-.8-1.2-3.3-4.6-5.5-5.2-.2-.1-.5-.1-.7-.1-.7.2-1.3.4-1.9.7z" fill="#000000" stroke-width="none" opacity="1"></path><path id="SvgjsPath14920" d="M55.5 79.3c2.6 1.4 5 5.6 6.2 9.6v.1c0 .3-.2.4-.3.1-.4-1.2-1-1.2-1.7 0-.2.7-.1 1.5.1 2.3.2.7.5 1.4.8 1.9.6 1.2 1.4 2 2.1 3 .2.3 0 .7-.2.5-1.6-1-3.9-4.6-3.4-7.6.2-1.4 1.1-2.2 1.8-1.7-.9-2.1-1.9-3.9-3.2-5.4-.7-.8-2.3-2.7-3.1-2.3-1.5.6-.7 4.6-.5 6.4 0 .3-.2.4-.3.1-1-2.9-1.1-8.5 1.7-7z" fill="#000000" stroke-width="none" opacity="1"></path><path id="SvgjsPath14921" d="M61.9 97.8c-2.8-.9-4.8-4.6-6-8.8-.7-2.5-2.1-8.3.6-8.2.2 0 .3.5.1.6-2.5 1.1.2 8.9 1 10.7 1.1 2.6 2.5 4.3 4.3 5.2.2.2.2.6 0 .5z" fill="#000000" stroke-width="none" opacity="1"></path></g></g><g id="svga-group-ears-right-move" transform="matrix(1,0,0,1,0,0)"><g id="svga-group-ears-right"><path id="SvgjsPath14922" d="M137.1 81.4s3-4.7 6.1-5.6 6.6 2.1 6.1 7.8c-.6 5.7-8.7 18.9-15.9 19.7-6.2.7 1.1-18.5 3.7-21.9z" fill="#ffffff" stroke-width="none" opacity="1"></path><path id="SvgjsPath14923" d="M133.1 104.2c-1 0-1.8-.4-2.3-1.1-2.9-4 3.4-19.3 5.5-22 .4-.6 3.3-5.1 6.6-5.9 1.5-.4 3-.1 4.4.8 2.2 1.5 3.3 4.4 3 7.9-.6 5.9-9 19.6-16.7 20.4-.2-.1-.3-.1-.5-.1zm11.1-27.6c-.2 0-.5 0-.7.1-2.2.6-4.7 3.9-5.5 5.2v.1c-2.4 3-7.7 17.4-5.5 20.3.2.3.4.4.9.3 6.5-.7 14.5-13.6 15-18.9.3-2.9-.6-5.3-2.3-6.4-.6-.5-1.2-.7-1.9-.7z" fill="#000000" stroke-width="none" opacity="1"></path><path id="SvgjsPath14924" d="M144.5 79.3c-2.6 1.4-5 5.6-6.2 9.6v.1c0 .3.2.4.3.1.4-1.2 1-1.2 1.7 0 .2.7.1 1.5-.1 2.3-.2.7-.5 1.4-.8 1.9-.6 1.2-1.4 2-2.1 3-.2.3 0 .7.2.5 1.6-1 3.9-4.6 3.4-7.6-.2-1.4-1.1-2.2-1.8-1.7.9-2.1 1.9-3.9 3.2-5.4.7-.8 2.3-2.7 3.1-2.3 1.5.6.7 4.6.5 6.4 0 .3.2.4.3.1 1-2.9 1.1-8.5-1.7-7z" fill="#000000" stroke-width="none" opacity="1"></path><path id="SvgjsPath14925" d="M138.1 97.8c2.8-.9 4.8-4.6 6-8.8.7-2.5 2.1-8.3-.6-8.2-.2 0-.3.5-.1.6 2.5 1.1-.2 8.9-1 10.7-1.1 2.6-2.5 4.3-4.3 5.2-.2.2-.2.6 0 .5z" fill="#000000" stroke-width="none" opacity="1"></path></g></g><g id="svga-group-faceshape-wrap"><g id="svga-group-faceshape-single"><path id="SvgjsPath14956" d="M139.4 74.3s.2-8.5-1.2-16.1c-2-10.8-13.3-27.4-37.2-27.4S69.1 43.5 65.5 53c-3 8.1-3 21.3-3 21.3s-1.4 34.3 1.9 45.5c0 0 8.7 12.8 34.4 22.7 0 0 33.3-10.9 39.9-23.9 0 0 1.2-34.6.7-44.3z" fill="#ffffff" stroke-width="none" opacity="1"></path><path id="SvgjsPath14957" d="m98.7 143.9-.4-.2c-25.8-9.9-34.6-22.6-35-23.1l-.1-.2-.1-.2c-3.3-11.2-2-44.1-1.9-45.9 0-.9 0-13.6 3.1-21.8 5.8-15.5 17.8-23 36.7-23 10.9 0 20.5 3.4 27.7 10 5.5 5 9.6 11.9 10.8 18.5 1.4 7.5 1.2 15.6 1.2 16.3.5 9.7-.7 42.9-.7 44.3v.3l-.1.3c-6.8 13.4-39.3 24.1-40.7 24.6l-.5.1zm-33.2-24.6c1.1 1.5 10.2 12.9 33.3 21.9 3.9-1.3 32.5-11.4 38.6-22.9.1-3.4 1.2-34.8.7-43.8 0-.1.2-8.4-1.2-15.9-1.1-6-4.8-12.4-10-17-6.7-6.1-15.7-9.3-26-9.3-17.7 0-28.9 7-34.3 21.3-2.9 7.8-2.9 20.8-2.9 20.9v.1c.1.1-1.3 33.6 1.8 44.7z" fill="#000000" stroke-width="none" opacity="1"></path></g></g><g id="svga-group-mouth-single-move" transform="matrix(1,0,0,1,0,0)"><g id="svga-group-mouth-single"><path id="SvgjsPath14903" d="M114.35 121.31c-.22.11-.44.19-.66.28-3.57-1.77-7.08-3.68-10.51-5.71-.04-.14-.18-.26-.34-.17-1.1.6-2.21 1.19-3.31 1.79-.02-.01-.02-.03-.04-.04l-2.43-.99c.06-.18-.13-.41-.35-.29a43.686 43.686 0 0 0-7.65 5.34c-.83-.16-1.65-.38-2.46-.67-.59-.21-.85.73-.26.94 1.15.41 2.32.7 3.5.86 2.82 2.94 6.19 6.18 10.56 6.03 4.15-.15 7.24-3.51 10.51-5.65 1.31 0 2.62-.23 3.94-.88.56-.27.06-1.12-.5-.84zM96.6 116.8c.92.38 1.84.75 2.76 1.13.06.03.11.01.16-.01.07.04.14.06.23.01 1.04-.56 2.07-1.12 3.11-1.68 3.32 1.97 6.72 3.82 10.18 5.54-4.09 1.13-8.32-1.32-12.49-1.26-1.98.03-3.86.66-5.79 1.02-1.71.32-3.4.33-5.07.07 2.13-1.83 4.44-3.44 6.91-4.82zm-6 5.94c.96.09 1.93.09 2.9-.01 2.62-.27 5.1-1.32 7.77-1.19 3 .14 5.9 1.28 8.8 1.47-2.76 1.93-5.4 4.57-8.82 5.09-4.36.66-7.81-2.44-10.65-5.36z" fill="#000000" stroke-width="none" opacity="1"></path></g></g><g id="svga-group-eyes-left-move" transform="matrix(1,0,0,1,-1,1)"><g id="svga-group-eyes-left" transform="matrix(1.1000004000000003,0,0,1.1000004000000003,-8.025032481471271,-8.69003491258853)"><g id="svga-group-eyesback-left"></g><g id="svga-group-eyesiriswrapper-left"><g id="svga-group-eyesiriscontrol-left" transform="matrix(1,0,0,1,0,0)"><g id="svga-group-eyesiris-left"><path id="SvgjsPath14989" d="M85 84.8c-1-1.9-3.2-2.7-5.2-2-2.2.8-3.8 3-3.1 5.4.4 1.2 1.5 2.4 2.8 2.7.5.1 1 .1 1.5.1.5.1 1.1 0 1.7-.2 2.4-.9 3.5-3.7 2.3-6z" fill="#ffffff" stroke-width="none" opacity="1"></path><path id="SvgjsPath14990" d="M83.4 85.8c0-.1 0-.1-.1-.1-.6-1.1-2-1.5-3.1-1 .2.2.4.5.6.7.2.3.5 1 .1 1.2-.4.2-1 0-1.3-.2-.2-.1-.3-.3-.5-.5 0 .1-.1.1-.1.2-.1.2-.1.4-.1.6-.2.7 0 1.4.5 1.9.2.2.5.3.8.4.6.3 1.2.4 1.8.1-.1-.1-.2-.2-.2-.4 0-.3.2-.6.5-.7.3-.1.6 0 .7.2.3-.3.5-.7.6-1.1.2-.3.1-.9-.2-1.3zm-2 5.3H81c-.5 0-1 0-1.4-.1-1.3-.3-2.4-1.4-2.9-2.8-.8-2.5.9-4.8 3.1-5.5 2.1-.8 4.4.1 5.4 2 .6 1.1.7 2.5.2 3.7s-1.4 2.1-2.6 2.5c-.5.2-1 .2-1.4.2zm-.4-.3c.6.1 1.1 0 1.6-.2 1.1-.4 2-1.2 2.4-2.4.4-1.1.4-2.3-.2-3.4-.9-1.8-3.1-2.6-5-1.9-2.1.7-3.7 2.9-3 5.2.4 1.3 1.5 2.3 2.7 2.6.5.1 1 .1 1.5.1z" fill="#000000" stroke-width="none" opacity="1"></path></g></g></g><g id="svga-group-eyesfront-left"><path id="SvgjsPath15029" d="M81 74.4c-6.9 0-12.5 5.6-12.5 12.5S74.1 99.4 81 99.4s12.5-5.6 12.5-12.5S87.9 74.4 81 74.4zm7.1 17s-3.9.4-5.4.4c-4.1 0-7.1-1.8-7.1-1.8s-7.5-5.3-2.3-7.1c5-1.7 11.2.8 13.2 2.9 2.1 2.1 1.6 5.6 1.6 5.6z" fill="#ffffff" stroke-width="none" opacity="1"></path><path id="SvgjsPath15030" d="M71.3 84c-.3.8-.2 1.7.4 2.8 1.4 2.4 3.9 4.2 7.1 4.9 1.2.3 2.5.4 3.9.4s3-.1 4.7-.4c.1 0 .2-.1.3-.2 0 .1.1.3.3.3.2.1.5 0 .6-.3.7-1.9 0-4.3-1.6-6-1.2-1.3-3-2.2-5.4-3-3.2-.9-5.9-1-8.2-.2-1.2.5-1.8 1-2.1 1.7zm.8.4c.2-.5.7-.8 1.5-1.1 2.1-.7 4.7-.6 7.7.2 2.3.7 3.9 1.5 5 2.7 1.4 1.4 1.9 3.4 1.4 4.9-.1-.2-.2-.3-.4-.3h-.1c-3.3.6-6 .6-8.3 0-2.9-.7-5.3-2.3-6.5-4.5-.3-.5-.6-1.3-.3-1.9zm-4.9-3c.1 0 .2.1.2.2 0 .3.1.5.3.7.4.3 1.3.4 2.2.3.4-.1.9-.3 1.6-.5 1.6-.6 3.8-1.3 6.5-1.4 3.6-.1 8.3 1.2 10.3 4.2 1.2 1.7 1.7 4.2 1.5 7.2v.1c0 .1-.1.2-.2.2s-.2-.1-.2-.2V92c.2-2.9-.3-5.3-1.4-7-1.9-2.8-6.5-4.1-9.9-4-2.6 0-4.8.8-6.4 1.3-.6.2-1.2.4-1.6.5-1.1.4-2.1.2-2.6-.2-.3-.2-.5-.6-.5-1 0-.1.1-.2.2-.2z" fill="#000000" stroke-width="none" opacity="1"></path></g></g></g><g id="svga-group-eyes-right-move" transform="matrix(1,0,0,1,1,1)"><g id="svga-group-eyes-right" transform="matrix(1.1000004000000003,0,0,1.1000004000000003,-11.970047574823042,-8.69003491258853)"><g id="svga-group-eyesback-right"></g><g id="svga-group-eyesiriswrapper-right"><g id="svga-group-eyesiriscontrol-right" transform="matrix(1,0,0,1,0,0)"><g id="svga-group-eyesiris-right"><path id="SvgjsPath14991" d="M123.4 84.8c-1-1.9-3.2-2.7-5.2-2-2.2.8-3.8 3-3.1 5.4.4 1.2 1.5 2.4 2.8 2.7.4.1.9.1 1.4.1.5.1 1.1 0 1.7-.2 2.5-.9 3.6-3.7 2.4-6z" fill="#ffffff" stroke-width="none" opacity="1"></path><path id="SvgjsPath14992" d="M121.8 85.8c0-.1 0-.1-.1-.1-.6-1.1-2-1.5-3.1-1 .2.2.4.5.6.7.2.3.5 1 .1 1.2-.4.2-1 0-1.3-.2-.2-.1-.3-.3-.5-.5 0 .1-.1.1-.1.2-.1.2-.1.4-.1.6-.2.7 0 1.4.5 1.9.2.2.5.3.8.4.6.3 1.2.4 1.8.1-.1-.1-.2-.2-.2-.4 0-.3.2-.6.5-.7.3-.1.6 0 .7.2.3-.3.5-.7.6-1.1.2-.3 0-.9-.2-1.3zm-2.1 5.3h-.4c-.5 0-1 0-1.4-.1-1.3-.3-2.4-1.4-2.9-2.8-.8-2.5.9-4.8 3.1-5.5 2.1-.8 4.4.1 5.4 2 .6 1.1.7 2.5.2 3.7s-1.4 2.1-2.6 2.5c-.5.2-.9.2-1.4.2zm-.3-.3c.6.1 1.1 0 1.6-.2 1.1-.4 2-1.2 2.4-2.4.4-1.1.4-2.3-.2-3.4-.9-1.8-3.1-2.6-5-1.9-2.1.7-3.7 2.9-3 5.2.4 1.3 1.5 2.3 2.7 2.6.5.1 1 .1 1.5.1z" fill="#000000" stroke-width="none" opacity="1"></path></g></g></g><g id="svga-group-eyesfront-right"><path id="SvgjsPath15031" d="M119 74.4c-6.9 0-12.5 5.6-12.5 12.5s5.6 12.5 12.5 12.5 12.5-5.6 12.5-12.5-5.6-12.5-12.5-12.5zm5.3 15.6s-3 1.7-7.1 1.8c-1.5 0-5.4-.4-5.4-.4s-.5-3.4 1.5-5.5 8.2-4.6 13.2-2.9c5.4 1.7-2.2 7-2.2 7z" fill="#ffffff" stroke-width="none" opacity="1"></path><path id="SvgjsPath15034" d="M126.6 82.4c-2.3-.8-5.1-.7-8.2.2-2.4.7-4.2 1.7-5.4 3-1.6 1.7-2.3 4-1.6 6 .1.2.3.4.6.3.2-.1.3-.2.3-.3.1.1.2.2.3.2 1.7.3 3.3.4 4.7.4 1.4 0 2.7-.1 3.9-.4 3.1-.7 5.7-2.6 7.1-4.9.6-1.1.7-2 .4-2.8-.4-.8-1-1.3-2.1-1.7zm.9 3.9c-1.2 2.2-3.6 3.8-6.5 4.5-2.3.6-4.9.5-8.3 0h-.1c-.2 0-.4.1-.4.3-.5-1.6.1-3.5 1.4-4.9 1.1-1.2 2.7-2 5-2.7 3-.9 5.6-.9 7.7-.2.8.3 1.3.6 1.5 1.1.3.6 0 1.4-.3 1.9zm5.2-4.9c-.1 0-.2.1-.2.2 0 .3-.1.5-.3.7-.4.3-1.3.4-2.2.3-.4-.1-.9-.3-1.6-.5-1.6-.6-3.8-1.3-6.5-1.4-3.6-.1-8.3 1.2-10.3 4.2-1.2 1.7-1.7 4.2-1.5 7.2v.1c0 .1.1.2.2.2s.2-.1.2-.2V92c-.2-2.9.3-5.3 1.4-7 1.9-2.8 6.5-4.1 9.9-4 2.6 0 4.8.8 6.4 1.3.6.2 1.2.4 1.6.5 1.1.2 2.1.1 2.6-.3.3-.2.5-.6.5-1 0 0-.1-.1-.2-.1z" fill="#000000" stroke-width="none" opacity="1"></path></g></g></g><g id="svga-group-facehighlight-single"></g><g id="svga-group-eyebrows-left-move" transform="matrix(1,0,0,1,0,0)"><g id="svga-group-eyebrows-left-rotate" transform="matrix(1,1.7453292519943295e-9,-1.7453292519943295e-9,1,1.337295145731332e-7,-1.3852445590600837e-7)"><g id="svga-group-eyebrows-left"><path id="SvgjsPath15071" d="M66.31 78.71c1.61-1.61 4.74-3.82 8.03-3.97 3.29-.15 11.39 3.97 13.15 4.82 1.76.84 3.29 1.61 4.13.76.84-.84 1.3-1.76.15-2.9-1.15-1.15-12.23-5.12-16.43-4.82-4.22.3-9.03 6.11-9.03 6.11z" fill="#ffffff" stroke-width="none" opacity="1"></path><path id="SvgjsPath15072" d="M65.99 79.06c.19.17.47.16.65-.02 1.68-1.68 4.71-3.7 7.71-3.84 2.87-.14 9.97 3.33 12.3 4.47.25.12.46.23.62.3l.13.06c1.18.57 2.32 1.11 3.26 1.11.48 0 .91-.14 1.27-.5.46-.46 1.86-1.86.15-3.57-1.31-1.31-12.6-5.26-16.8-4.95-4.35.32-9.15 6.04-9.35 6.28-.15.21-.13.49.06.66zm9.86-6.01c.52 0 1.12.05 1.76.14l2.57 2.55c-.71-.28-1.43-.53-2.11-.75l-2.83-1.91c.04 0 .07-.01.11-.01.16-.01.33-.02.5-.02zm5.85 3.31-3.02-2.99c.73.14 1.51.31 2.3.51l3.23 3.59c-.78-.36-1.63-.74-2.51-1.11zm3.84-1.13c.73.25 1.42.49 2.06.73l2.2 4.07c-.28-.09-.59-.21-.91-.35l-3.35-4.45zm5.06 4.97-2.09-3.88c.54.22 1.03.42 1.45.61L91 80.15c-.12.04-.25.05-.4.05zm.92-.49-.78-2.39c.33.17.57.32.68.43.69.68.73 1.23.1 1.96zm-5.83-1.55-3.59-3.98c.8.22 1.6.46 2.39.71l3.18 4.23c-.16-.07-.36-.17-.6-.29-.38-.18-.85-.42-1.38-.67zm-14.84-3.07c1.1-.81 2.32-1.51 3.51-1.84l1.82 1.23c-.71-.15-1.35-.24-1.88-.21-1.17.05-2.34.36-3.45.82z" fill="#000000" stroke-width="none" opacity="1"></path></g></g></g><g id="svga-group-eyebrows-right-move" transform="matrix(1,0,0,1,0,0)"><g id="svga-group-eyebrows-right-rotate" transform="matrix(1,1.7453292519943295e-9,-1.7453292519943295e-9,1,1.3374697971357818e-7,-2.1054034959888668e-7)"><g id="svga-group-eyebrows-right"><path id="SvgjsPath15073" d="M133.69 78.71c-1.61-1.61-4.74-3.82-8.03-3.97-3.29-.15-11.39 3.97-13.15 4.82-1.76.84-3.29 1.61-4.13.76-.84-.84-1.3-1.76-.15-2.9 1.15-1.15 12.23-5.12 16.43-4.82 4.22.3 9.03 6.11 9.03 6.11z" fill="#ffffff" stroke-width="none" opacity="1"></path><path id="SvgjsPath15074" d="M134.06 78.41c-.2-.24-4.99-5.97-9.35-6.28-4.2-.31-15.49 3.64-16.8 4.95-1.71 1.71-.31 3.11.15 3.57.36.36.79.5 1.27.5.94 0 2.08-.54 3.26-1.11l.13-.06c.16-.08.37-.18.62-.3 2.33-1.14 9.43-4.61 12.3-4.47 3 .14 6.03 2.15 7.71 3.84a.478.478 0 0 0 .71-.64zm-9.42-5.34c.04 0 .07.01.11.01l-2.83 1.91c-.68.22-1.39.48-2.11.75l2.57-2.55c.64-.09 1.24-.14 1.76-.14.18 0 .35.01.5.02zm-8.86 4.4 3.23-3.59c.8-.2 1.57-.37 2.3-.51l-3.02 2.99c-.87.37-1.72.75-2.51 1.11zm-4.67 2.22c-.32.14-.62.26-.91.35l2.2-4.07c.64-.24 1.34-.49 2.06-.73l-3.35 4.45zm-2.11.46 1.05-3.22c.42-.19.91-.4 1.45-.61l-2.09 3.88c-.16 0-.29-.01-.41-.05zm-.42-2.4c.11-.11.35-.26.68-.43l-.78 2.39c-.63-.73-.59-1.28.1-1.96zm4.35 1.08c-.25.12-.45.22-.6.29l3.18-4.23c.79-.25 1.59-.49 2.39-.71l-3.59 3.98c-.53.25-1 .49-1.38.67zm12.76-4.56c-.53-.02-1.17.06-1.88.21l1.82-1.23c1.19.32 2.41 1.02 3.51 1.84-1.1-.46-2.27-.77-3.45-.82z" fill="#000000" stroke-width="none" opacity="1"></path></g></g></g><g id="svga-group-nose-single-move" transform="matrix(1,0,0,1,0,0)"><g id="svga-group-nose-single"><path id="SvgjsPath15061" d="M95.9 107.5c2 1 4.3 2 6.4 1 2.2-1.1 2.2-3.4 2-5.6-.8-6.5-1.9-13-3.3-19.4-.2-.8-1.4-.5-1.2.3 1 4.7 1.9 9.4 2.6 14.2.3 2.3 1.1 5 .8 7.3-.5 3.6-4.5 2.2-6.6 1.1-.8-.3-1.4.8-.7 1.1z" fill="#000000" stroke-width="none" opacity="1"></path></g></g><g id="svga-group-hair-front"><path id="SvgjsPath15110" d="M81.3 51.3s6.6-12.2 16.8-14c10.3-1.9 18.7 2.8 16.2 10.3s-4.7 20.6 5.6 19.7 17.5 5.9 18.1 12.8c.9 9.5-9.4 16.2-8.1 24.7s10.6 3.7 15.6 9.4-9.4 7.5-10.6 13.4c-1.2 5.9 7.2 13.4 12.2 12.2 0 0-5.9-3.4-2.8-6.9 3.1-3.4 13.2-2 18.1-8.1 6.6-8.1 3.4-20.3-5.3-25.6-8.7-5.3 1.9-11.9 7.2-20.6s-4.1-18.4-16.2-24.3-9.1-11.9-6.6-16.2-4.7-13.4-20-11.5-11.6-3.7-17.5-7.8c-5.8-4.3-13-2.4-17.1 3.2s-16.2 2.5-18.1 9.7c0 0-11.9-4.7-15.9 1.2s-1.9 9.7-7.2 13.4c-5.3 3.7-7.2 11.5-3.1 17.5S32 68.5 30.8 76.9s7.5 10.9 9.4 21.5-4.4 13.4-6.5 20.3 9.4 10.6 17.8 14 1.2 14.7 1.2 14.7 15.3-9.1 11.9-19-7.8-9.4-5.6-15.3 11.2-5 11.2-11.9-4.4-4.6-5-11.9c-.6-7.5 2.5-5.6 4.1-14 1.2-6.4-4.4-9.1-4.1-15.9S75.4 47 81.3 51.3z" fill="#ffffff" stroke-width="none" opacity="1"></path><path id="SvgjsPath15111" d="M166.7 111.5c-.9-5.4-4.3-10.4-9-13.2-1.7-1-2.6-2.1-2.8-3.3-.4-2.4 2.2-5.6 5.1-9 1.8-2.2 3.7-4.5 5.3-7 1.7-2.8 2.1-5.8 1.2-9-1.8-6-8.3-12.1-17.8-16.8-4.6-2.2-7.3-4.6-8-7.2-.8-2.6.4-5 1.9-7.7 1-1.8.8-4.2-.7-6.4-2.6-3.9-9.4-7.9-20.2-6.6-9.9 1.2-11.2-.7-12.9-3.4-.9-1.3-1.8-2.9-3.8-4.2-6.2-4.2-14-2.7-18.5 3.7-1.6 2.2-5 3-8.3 3.6-4 .8-8.1 1.7-9.7 5.3-3.1-1-12.3-3.5-16.1 2-1.8 2.7-2.5 4.9-3 6.9-.7 2.5-1.2 4.3-3.9 6.3-6 4.3-7.6 12.7-3.4 18.9.4.6.6 1.2.5 1.5-.3.9-2.2 1.8-4 2.6-3.5 1.6-7.8 3.5-8.5 8.3-.7 4.8 1.6 7.9 4.1 11.2 2.2 2.9 4.5 5.9 5.3 10.7 1.2 6.7-1 10-3.3 13.6-1.2 1.9-2.5 3.8-3.2 6.2-2.2 7.1 7.4 10.9 15.8 14.3.9.3 1.7.7 2.5 1 1.7.7 2.7 1.7 3.2 3.2 1.3 4.1-2.4 9.9-2.4 10l-2.2 3.5 3.6-2.1c.7-.4 15.9-9.6 12.3-20.2-1.5-4.4-3.2-6.8-4.5-8.6-1.6-2.3-2.2-3.1-1.1-6 .9-2.3 3-3.5 5.3-4.7 2.8-1.5 6-3.2 6-7.5 0-3.9-1.4-5.3-2.6-6.5-1.1-1.1-2.1-2.2-2.4-5.4-.3-3.8.3-4.9 1.3-6.5.9-1.5 2-3.3 2.7-7.3.7-3.7-.7-6.2-1.9-8.7-1.2-2.2-2.2-4.3-2.1-7.3.1-3 2.4-6 5.9-7.6 1.4-.7 2.8-1 4.2-1-1.4.6-2.6 1.6-3.4 3.2-.7 1.3-.8 2.8-.5 4.2.7 2.7 5.4 6.1 2.7 9-.5.6.3 1.5.9.9 1.3-1.5 1.4-3.2.7-5-.8-1.8-2.6-3.2-3.1-5.2-.9-4.1 2.6-6.2 6.1-6.4.4.2.8.4 1.2.7l.9.7.6-1s.1-.3.4-.7c3.2-3.9 7.8-7.7 12.8-8.6 6.5-1.1 10.1 4.8 8.3 10.6-.8 2.5-2.3 4.6-3.1 7-.8 2.3-1 5.3.8 7.3 2 2.2 11 .9 10.4 4.6-.1.8 1.1 1.1 1.2.3.2-1.8 0-2.9-1.6-4-1.8-1.2-4.1.1-5.9-.6-1.8-.3-3.9-.3-4.3-4.5.3-2 .9-4 2-5.7.5-1.1 1.1-2.1 1.5-3.3.9-2.6 1.3-5.5.3-8.1-3.3-8.8-12.4-5-18.7-.1 2.8-3.3 7-6.9 12.1-7.8 6-1.1 11.5.1 14.1 3.1 1.4 1.6 1.8 3.7 1 5.9-1 3.1-4.1 13.6-.2 18.5 1.5 1.9 3.8 2.7 6.9 2.5 4.5-.4 8.7.8 12 3.3 2.9 2.3 4.8 5.4 5 8.6.4 4.5-1.9 8.4-4.1 12.2-2.3 3.9-4.6 8-4 12.5.8 5.5 4.9 6.2 8.5 6.8 2.7.4 5.4.9 7.3 3.1.6.7.9 1.3.8 1.8-.2 1.3-2.5 2.7-4.7 4-2.9 1.8-6.3 3.7-6.9 6.8s.9 6.6 4 9.6c3 2.9 6.7 4.4 9.4 3.7l2.4-.6-2.1-1.2c-.8-.4-2.9-2-3.2-3.6-.1-.6.1-1.2.6-1.7 1.1-1.2 3.6-1.8 6.3-2.4 4.1-.9 8.8-2 11.8-5.8 2.6-4.2 3.8-9.1 2.9-14.2zM140 33.1c1.1 1.6 1.3 3.2.7 4.3-1.3 2.2-3.2 5.6-2.1 9.3 1 3.1 3.9 5.8 9.1 8.4 8.9 4.3 15.2 10.2 16.8 15.5.8 2.6.4 5.1-1 7.4-1.4 2.4-3.3 4.6-5.1 6.7-.2.2-.4.4-.5.7.7-1.2 1.3-2.3 1.7-3.5 1.1-3.3 1.1-7 .1-10.4-2-7-7.9-12.1-14.6-14.5-5.5-2-14.4-2.1-13.2-10.3.5-3.6 3.3-5.7 2.7-9.7-.9-5.7-5.7-8.5-10.8-9.7 8.7-.6 14.1 2.6 16.2 5.8zm-108.2 44c.5-3.7 4.2-5.3 7.4-6.7 2.5-1.1 4.6-2.1 5.1-3.9.3-1 0-2-.8-3.2-3.6-5.2-2.3-12.5 2.9-16.1.3-.2.6-.5.9-.7-1 2-1.6 4.2-1.9 6.6-1 9.3 5.8 19.7-1.8 27.5-2 2.1-4.9 3.8-6.1 6.6-.2.6-.4 1.2-.5 1.7l-1.5-2.1c-2.5-3.2-4.4-5.7-3.7-9.7zm129.9 47c-2.6 3.2-6.9 4.2-10.7 5.1-3.1.7-5.8 1.3-7.4 3-.9 1-1.3 2.2-1.1 3.4.2 1.1.8 2.2 1.6 3-1.5-.5-3.2-1.5-4.7-3-2.6-2.5-3.9-5.5-3.4-7.8.5-2.2 3.4-3.9 6-5.4 2.7-1.6 5.3-3.2 5.7-5.4.2-1.1-.2-2.3-1.3-3.4-2.4-2.7-5.6-3.2-8.5-3.7-3.6-.6-6.3-1.1-6.9-5.1-.6-3.8 1.5-7.4 3.7-11.2 2.4-4.1 4.9-8.3 4.4-13.4-.3-3.8-2.5-7.4-5.8-10-3.6-2.8-8.4-4.1-13.4-3.7-2.3.2-4-.3-5.1-1.7-2.6-3.3-1.4-10.8.5-16.6 1-2.9.5-5.7-1.4-7.9-3-3.5-9.3-4.9-16-3.7C89 38 82.8 47 81 49.9c-2.8-1.5-6.4-1.5-9.9.1-4.1 2-6.8 5.6-7 9.3-.2 3.6 1.2 6.1 2.3 8.3 1.2 2.4 2.3 4.4 1.7 7.4-.7 3.6-1.6 5.2-2.5 6.6-1.1 1.8-2 3.3-1.6 7.7.3 4 1.7 5.4 3 6.7 1.1 1.2 2 2.1 2 5.1 0 3-1.9 4.1-5 5.8-2.4 1.3-5.1 2.7-6.2 5.8-1.4 3.9-.3 5.5 1.4 7.8 1.2 1.7 2.8 3.9 4.2 8.1 2.2 6.4-4.2 12.5-8.3 15.7.7-1.8 1.3-4 1.2-6.1v-.2c-.1-3.4-2-5.6-4.7-7.6-2.3-1.7-5.2-2.9-6.9-5.2-3.1-4.5-.4-7.6 2.3-11 2-2.5 4.2-5.1 4.1-8.5 0-6.3-6.6-11-5-17.4 1.1-4.6 5.9-6.1 7.9-10.1 2-4.2.1-8.8-1.5-12.9-2.7-6.7-2.6-13.3 3-18.6 5.8-5.4 14.1-5.7 21.5-4 .8.2 1.1-1 .3-1.2-9.7-2.2-21.3-.6-26.3 9.1-2.3 4.5-2 8.9-.3 13.5 1.5 3.9 3.6 7.7 2.7 12.1-.7 3.6-4.6 5.4-6.7 8-2.7 3.3-2.6 6.7-1.1 10.6 1.7 4.3 5 7.8 3.8 12.7-.8 3.2-3 5.2-5 7.8-2 2.7-3.5 5.7-1.9 8.9 1.7 3.6 5.7 5.2 8.8 7.5l-2.4-.9c-7.7-3-16.4-6.5-14.7-11.8.7-2.2 1.8-3.9 3-5.8 2.4-3.7 4.9-7.6 3.6-15-.5-2.9-1.5-5.2-2.7-7.2-.6-4.1 1.9-5.8 4.3-8 1.6-1.5 3.2-2.9 4.2-4.8 2.3-4.3 1.6-9.4.8-14-1.4-7.7-2-14.8 3.3-21.1s13.8-8.1 21.5-5.4c.8.3 1.1-.9.3-1.2-8.2-2.9-17-.5-22.3 5.3.2-.7.4-1.3.6-2 .5-1.9 1.1-3.9 2.7-6.3 1.3-2 3.8-2.6 6.2-2.6 4.1 0 8.4 1.7 8.5 1.7l1.1.4.3-1.1c.9-3.3 4.4-4 8.5-4.9l1.5-.3c-.2.2-.4.3-.6.5-2.2 2.1-3.6 5-4.6 7.8-.3.8.9 1.1 1.2.3 1.3-3.7 3.2-7.1 6.8-9 1.4-.8 2.9-1.5 4-2.5l1.2-1.2c3.9-5.4 10.6-6.8 15.8-3.2 1.7 1.1 2.5 2.4 3.3 3.7.6.9 1.2 1.7 1.9 2.4-12.6-1-29.2-1.1-30.3 13.5-.1.8 1.2.8 1.2 0 1.1-14.4 19-13.2 31.2-12.1 1.6.7 3.8 1 7.1.8h.2c6.3.2 15.5 2.6 15.3 10.7-.1 3.8-3.5 6.8-3.1 10.6.6 5.8 7.2 7 11.6 8.2 10 2.6 19.5 11.4 16.9 22.7-.9 4.2-4.7 8-5.5 12.1-.4 1.1-.6 2.2-.4 3.2.3 1.8 1.5 3.3 3.8 4.7 4.2 2.6 7.2 7 8.1 11.9.8 4.5-.3 8.9-3 12.3zm-18.8-29.3c3.5-6.8 9.1-12.4 7.6-20.8-1-5.5-5-9.1-10.1-10.9-4.2-1.5-8.7-1-12.8-2.4-7.9-2.7-4.2-9.5-4.2-15.1-.1-5.9-3.9-11.2-8.9-14-11.7-6.7-27.9.8-34.2 11.8-.4.6.7 1.3 1.1.6 7.4-12.9 30.4-20.5 39.1-4.6 2.3 4.2 1.3 8.1.7 12.5-.2 1.8-.4 3.7.3 5.4 1.9 4.4 7 5 11.2 5.6 9.5 1.2 18.8 6 16.4 17.4-1.4 6.5-7 10.7-8.6 17-1 4 1 7.3 4.1 9.7 2.1 1.7 4.5 2.8 6.6 4.4 2.6 2 3.7 3.3 3.7 6.7 0 3.8-1.4 5.1-4.5 7.2-.7.4 0 1.5.6 1.1 4.1-2.7 7.6-6.7 5-11.7-3.9-7.5-18.9-8.7-13.1-19.9zM79.6 45.9c-7.3-3.2-16.4-1.2-20.5 6.1-1.8 3.2-2.5 7-1.9 10.7.4 2.5 1.5 4.3 2.6 6.5 2.7 5.4 1 9.2-1.9 13.9-2.2 3.5-4.8 7.8-2.9 12 .8 1.7 2.3 2.7 3.4 4.1 5 6.5-.4 7.7-3.2 11-2.1 2.5-3 6.1-2.3 9.3 1.2 5.6 7.7 8.3 7.6 14.3 0 .8 1.2.8 1.2 0 0-3.3-1.5-5.5-3.5-7.9-4.4-5.3-6.2-11.3-.3-16.4 1.9-1.7 4.2-2.8 4.2-5.7.1-3.8-4.1-6.3-5.5-9.4-2.6-6.3 3.3-10.6 5.4-16 1.4-3.7.6-6.4-1.1-9.9-2.8-5.8-3.8-11.4 0-17 4-5.8 11.7-7.3 18-4.5.8.3 1.4-.8.7-1.1z" fill="#000000" stroke-width="none" opacity="1"></path></g><g id="svga-group-glasses-single-move" transform="matrix(1,0,0,1,0,0)"><g id="svga-group-glasses-single" transform="matrix(1.1500006000000005,0,0,1.1500006000000005,0,0)"></g></g></g></g></g><rect id="svga-credit-rect" width="200" height="15" x="0" y="185" fill="#ecf0f1" opacity="0.5" style="display: none;"></rect><text id="svga-credit-text" font-family="Avenir Next, Roboto, Helvetica, Arial, sans-serif" font-size="10px" text-anchor="start" font-weight="400" size="10px" anchor="start" weight="400" fill="#333333" x="33.40447998046875" y="182.60824704170227" style="display: none;"><tspan id="SvgjsTspan14897" dy="13" x="33.40447998046875">Created on AvatarMaker.com</tspan></text></g><defs id="SvgjsDefs14849"></defs></svg>